<svg xmlns="http://www.w3.org/2000/svg" viewBox="0 0 80.22 80.22"><defs><style>.cls-1{opacity:0.7;}.cls-2{fill:#fff;}.cls-3{fill:none;}</style></defs><g id="Layer_2" data-name="Layer 2"><g id="Layer_1-2" data-name="Layer 1"><g class="cls-1"><path class="cls-2" d="M40.11,20.83c6.28,0,7,0,9.5.13a13.2,13.2,0,0,1,4.37.81,7.31,7.31,0,0,1,2.7,1.76,7.18,7.18,0,0,1,1.76,2.71,12.68,12.68,0,0,1,.81,4.37c.12,2.48.14,3.22.14,9.5s0,7-.14,9.5A12.68,12.68,0,0,1,58.44,54a7.07,7.07,0,0,1-1.76,2.7A7.21,7.21,0,0,1,54,58.45a13,13,0,0,1-4.37.8c-2.48.12-3.22.14-9.5.14s-7,0-9.51-.14a13,13,0,0,1-4.36-.8A7.85,7.85,0,0,1,21.77,54,13.2,13.2,0,0,1,21,49.61c-.11-2.48-.13-3.22-.13-9.5s0-7,.13-9.5a13.2,13.2,0,0,1,.81-4.37,7.77,7.77,0,0,1,4.47-4.47A13.18,13.18,0,0,1,30.6,21c2.49-.11,3.23-.13,9.51-.13m0-4.24c-6.39,0-7.19,0-9.7.14a17.22,17.22,0,0,0-5.71,1.1,11.45,11.45,0,0,0-4.16,2.71,11.69,11.69,0,0,0-2.72,4.16,17.51,17.51,0,0,0-1.09,5.71c-.11,2.51-.14,3.31-.14,9.7s0,7.19.14,9.7a17.51,17.51,0,0,0,1.09,5.71,11.69,11.69,0,0,0,2.72,4.16,11.45,11.45,0,0,0,4.16,2.71,17.22,17.22,0,0,0,5.71,1.1c2.51.11,3.31.14,9.7.14s7.19,0,9.7-.14a17.1,17.1,0,0,0,5.7-1.1,12,12,0,0,0,6.88-6.87,17.48,17.48,0,0,0,1.1-5.71c.11-2.51.14-3.31.14-9.7s0-7.19-.14-9.7a17.48,17.48,0,0,0-1.1-5.71,12,12,0,0,0-6.88-6.87,17.1,17.1,0,0,0-5.7-1.1c-2.51-.11-3.31-.14-9.7-.14"/><path class="cls-2" d="M40.11,28A12.08,12.08,0,1,0,52.19,40.11,12.08,12.08,0,0,0,40.11,28m0,19.92A7.84,7.84,0,1,1,48,40.11,7.84,7.84,0,0,1,40.11,48"/><path class="cls-2" d="M55.49,27.55a2.83,2.83,0,1,1-2.83-2.82,2.83,2.83,0,0,1,2.83,2.82"/></g><rect class="cls-3" width="80.22" height="80.22"/></g></g></svg>