<svg xmlns="http://www.w3.org/2000/svg" viewBox="0 0 80.22 80.22"><defs><style>.cls-1{fill:#fff;opacity:0.7;}.cls-2{fill:none;}</style></defs><g id="Layer_2" data-name="Layer 2"><g id="Layer_1-2" data-name="Layer 1"><path class="cls-1" d="M69.86,25.16a7.8,7.8,0,0,0-5.49-5.49c-4.84-1.29-24.26-1.29-24.26-1.29s-19.42,0-24.26,1.29a7.79,7.79,0,0,0-5.49,5.49c-1.3,4.85-1.3,15-1.3,15s0,10.1,1.3,14.94a7.75,7.75,0,0,0,5.49,5.49c4.84,1.3,24.26,1.3,24.26,1.3s19.42,0,24.26-1.3a7.77,7.77,0,0,0,5.49-5.49c1.3-4.84,1.3-14.94,1.3-14.94S71.16,30,69.86,25.16Zm-36,24.26V30.79L50,40.11Z"/><rect class="cls-2" width="80.22" height="80.22"/></g></g></svg>