<svg xmlns="http://www.w3.org/2000/svg" viewBox="0 0 80.22 80.22"><defs><style>.cls-1{fill:#fff;opacity:0.7;}.cls-2{fill:none;}</style></defs><g id="Layer_2" data-name="Layer 2"><g id="Layer_1-2" data-name="Layer 1"><path class="cls-1" d="M57.35,19.07q-10.12-.33-13.71,11.42a9.15,9.15,0,0,1,3.6-.8q3.72,0,3.28,4.18-.23,2.51-3.28,7.34T42.66,46q-2,0-3.61-7.44-.55-2.19-2-11.15-1.3-8.32-7-7.77-2.4.21-7.21,4.37-3.49,3.16-7.1,6.33l2.29,2.95C20.25,31.81,21.53,31,21.89,31q2.5,0,4.69,7.86l3.93,14.4q2.93,7.86,7.19,7.86,6.87,0,16.79-12.9,9.6-12.34,9.92-19.46.44-9.51-7.06-9.73"/><rect class="cls-2" width="80.22" height="80.22"/></g></g></svg>